<?xml version="1.0" standalone="no"?>
<!DOCTYPE svg PUBLIC "-//W3C//DTD SVG 20010904//EN"
 "http://www.w3.org/TR/2001/REC-SVG-20010904/DTD/svg10.dtd">
<svg version="1.0" xmlns="http://www.w3.org/2000/svg"
 width="1024.000000pt" height="1024.000000pt" viewBox="0 0 1024.000000 1024.000000"
 preserveAspectRatio="xMidYMid meet">
<metadata>
Created by potrace 1.14, written by Peter Selinger 2001-2017
</metadata>
<g transform="translate(0.000000,1024.000000) scale(0.100000,-0.100000)"
fill="#000000" stroke="none">
<path d="M0 10226 c0 -12 6 -13 33 -4 45 15 46 18 4 18 -26 0 -37 -4 -37 -14z"/>
<path d="M230 10233 c-1 -17 1715 -5423 1721 -5423 7 0 4089 5415 4089 5424 0
9 -5810 7 -5810 -1z"/>
<path d="M6751 8659 c-672 -869 -1221 -1582 -1219 -1585 6 -5 4669 -2391 4691
-2399 16 -7 17 136 17 2779 l0 2786 -1133 0 -1132 0 -1224 -1581z"/>
<path d="M3470 4390 c-855 -1079 -991 -1255 -986 -1276 8 -29 902 -2855 952
-3006 l36 -108 3384 0 3384 0 -2 1292 -3 1293 -2800 1482 c-1540 815 -2839
1502 -2886 1528 l-87 45 -992 -1250z"/>
<path d="M1 1968 l-1 -1968 626 0 c547 0 625 2 620 15 -3 8 -278 875 -611
1927 -333 1052 -612 1931 -620 1953 -11 34 -14 -240 -14 -1927z"/>
</g>
</svg>
